<?xml version="1.0" standalone="no"?>
<!DOCTYPE svg PUBLIC "-//W3C//DTD SVG 20010904//EN"
 "http://www.w3.org/TR/2001/REC-SVG-20010904/DTD/svg10.dtd">
<svg version="1.0" xmlns="http://www.w3.org/2000/svg"
 width="500.000000pt" height="500.000000pt" viewBox="0 0 500.000000 500.000000"
 preserveAspectRatio="xMidYMid meet">

<g transform="translate(0.000000,500.000000) scale(0.100000,-0.100000)"
fill="#000000" stroke="none">
<path d="M3183 3980 c-7 -19 -24 -35 -43 -44 -21 -8 -28 -16 -21 -21 7 -4 26
7 46 28 l34 35 16 -24 c8 -13 21 -24 27 -24 7 0 5 5 -4 13 -9 6 -22 24 -30 40
l-14 27 -11 -30z"/>
<path d="M3255 3920 c-3 -5 -2 -10 4 -10 5 0 13 5 16 10 3 6 2 10 -4 10 -5 0
-13 -4 -16 -10z"/>
<path d="M3169 3884 c12 -15 21 -34 22 -43 0 -10 5 -6 12 10 7 14 18 35 26 45
7 10 2 7 -12 -8 l-25 -26 -11 24 c-6 13 -15 24 -22 24 -6 0 -1 -12 10 -26z"/>
<path d="M3550 3840 c0 -5 5 -10 10 -10 6 0 10 5 10 10 0 6 -4 10 -10 10 -5 0
-10 -4 -10 -10z"/>
<path d="M2695 3813 c-125 -26 -265 -104 -352 -194 -117 -123 -173 -254 -181
-425 -3 -74 -1 -118 7 -132 11 -21 10 -22 -26 -21 -85 2 -154 16 -183 37 l-30
23 0 -21 c0 -17 -4 -20 -21 -15 -19 6 -20 5 -9 -14 12 -23 8 -33 -24 -69 -12
-13 -26 -46 -32 -73 -11 -47 -10 -51 14 -69 20 -16 40 -20 101 -20 102 0 106
-3 91 -76 -6 -33 -14 -70 -16 -82 -7 -35 -189 -219 -229 -232 -50 -17 -54 -43
-10 -68 16 -9 7 -11 -52 -12 -40 0 -73 -3 -73 -6 0 -3 5 -14 10 -25 9 -15 15
-17 30 -9 10 5 30 10 44 10 l26 0 0 -136 c0 -74 -5 -144 -10 -155 -10 -18 -7
-19 40 -19 47 0 50 1 40 19 -5 11 -10 81 -10 155 l0 136 26 0 c14 0 34 -5 46
-11 23 -12 23 -12 32 19 7 21 5 22 -61 22 -67 1 -68 1 -36 15 18 7 60 37 93
64 34 28 75 58 93 68 18 9 58 37 91 64 47 38 73 51 132 65 71 16 76 16 114 -1
47 -21 66 -48 95 -134 l22 -65 -26 -22 c-22 -19 -23 -24 -12 -38 12 -14 9 -16
-22 -16 -35 0 -36 0 -26 -32 5 -18 9 -80 9 -138 0 -58 -4 -120 -9 -138 l-10
-32 44 0 c44 0 44 1 35 26 -6 14 -10 83 -10 152 0 136 11 172 50 172 39 0 53
29 46 94 -3 34 -9 74 -12 90 -7 28 -7 28 18 12 54 -35 130 -51 254 -51 83 0
126 4 136 13 13 10 18 9 29 -4 12 -15 8 -21 -29 -55 -24 -21 -55 -39 -70 -41
-21 -2 -28 -9 -30 -30 -3 -27 -2 -28 48 -28 31 0 66 8 89 20 42 21 144 128
138 145 -18 47 -17 50 26 73 53 28 81 28 137 0 47 -24 102 -100 118 -163 9
-33 35 -44 57 -25 24 20 17 79 -19 154 -18 39 -41 89 -52 112 -10 23 -31 48
-46 57 l-27 16 30 32 c46 50 37 63 -43 60 l-66 -2 -16 54 c-9 29 -29 71 -46
92 -16 21 -30 41 -30 44 0 17 47 73 118 141 68 64 82 83 98 133 16 51 16 66 5
133 l-12 75 30 48 c17 26 31 58 31 71 0 21 -3 22 -37 17 -49 -8 -84 -35 -107
-82 -17 -35 -18 -44 -7 -94 36 -156 22 -200 -76 -246 -32 -15 -87 -48 -123
-74 -63 -44 -68 -46 -148 -50 -123 -5 -125 -4 -171 92 -51 107 -66 171 -65
287 0 99 24 201 65 283 11 21 17 42 14 47 -6 10 -33 11 -70 3z"/>
<path d="M3748 3793 c-7 -15 -27 -35 -45 -44 l-31 -16 33 -12 c23 -8 37 -21
45 -44 l11 -32 14 33 c9 20 27 38 45 46 l32 13 -31 13 c-17 7 -36 20 -41 29
-5 9 -10 11 -10 4 0 -7 11 -20 24 -28 l24 -16 -27 -27 c-24 -26 -27 -27 -41
-11 -8 9 -24 21 -34 27 -19 9 -19 10 0 16 20 6 60 63 51 72 -3 3 -11 -7 -19
-23z"/>
<path d="M1901 3668 c-1 -10 -8 -18 -17 -18 -8 0 -12 -5 -9 -10 3 -6 -4 -14
-16 -18 l-23 -9 23 -6 c15 -4 20 -10 15 -18 -4 -7 -3 -10 4 -5 6 3 15 -1 20
-10 8 -15 10 -15 15 1 4 9 12 13 18 9 8 -4 9 -3 5 5 -4 7 2 14 15 19 l23 9
-23 6 c-15 4 -20 10 -15 18 4 8 3 10 -5 5 -7 -4 -15 2 -20 16 -7 17 -10 19
-10 6z"/>
<path d="M2967 3561 c-4 -15 -10 -20 -18 -15 -8 4 -10 3 -5 -5 4 -7 -2 -14
-15 -19 l-23 -9 23 -6 c15 -4 20 -10 15 -18 -4 -8 -3 -10 5 -5 7 4 14 -2 19
-15 l9 -23 6 23 c4 15 10 20 18 15 7 -4 10 -3 5 4 -3 6 1 15 10 20 15 8 15 10
-1 15 -9 4 -13 12 -9 18 4 8 3 9 -5 5 -7 -4 -14 2 -19 15 l-9 23 -6 -23z"/>
<path d="M3561 3446 c-17 -20 -2 -48 23 -44 14 2 21 11 22 26 1 18 1 19 -3 2
-5 -22 -28 -27 -39 -8 -4 6 1 17 11 25 11 7 14 13 8 13 -6 0 -16 -6 -22 -14z"/>
<path d="M1211 3278 c0 -10 -13 -25 -27 -34 -22 -15 -23 -19 -10 -26 9 -5 13
-14 10 -20 -4 -6 -2 -8 4 -4 6 3 15 -1 20 -10 8 -15 10 -15 15 1 4 9 12 13 18
9 7 -4 9 -3 5 4 -3 6 1 15 10 20 15 8 15 10 -1 15 -9 4 -13 11 -10 17 3 5 -1
10 -9 10 -8 0 -17 8 -19 18 -4 16 -5 16 -6 0z"/>
<path d="M1730 3140 c0 -5 5 -10 10 -10 6 0 10 5 10 10 0 6 -4 10 -10 10 -5 0
-10 -4 -10 -10z"/>
<path d="M1521 3093 c-8 -19 -25 -36 -43 -44 l-31 -13 31 -15 c20 -9 36 -27
44 -48 l12 -33 14 34 c9 22 24 39 45 47 l31 13 -32 13 c-20 8 -37 25 -45 45
l-13 32 -13 -31z m39 -84 l-25 -26 -26 26 -26 26 25 25 25 25 26 -25 26 -25
-25 -26z"/>
<path d="M1710 2756 c0 -2 7 -9 15 -16 9 -7 15 -8 15 -2 0 5 -7 12 -15 16 -8
3 -15 4 -15 2z"/>
<path d="M1725 2710 c-3 -5 -1 -10 4 -10 6 0 11 5 11 10 0 6 -2 10 -4 10 -3 0
-8 -4 -11 -10z"/>
<path d="M3100 2338 c0 -34 -80 -268 -102 -300 l-19 -28 38 0 c36 0 38 2 39
33 1 60 8 67 69 67 51 0 56 -2 66 -27 6 -16 8 -38 6 -50 -4 -21 -1 -23 44 -23
49 0 58 7 38 27 -6 6 -37 80 -69 165 -52 141 -59 153 -83 156 -22 3 -27 -1
-27 -20z m49 -145 l21 -53 -45 0 c-25 0 -45 2 -45 4 0 2 6 19 14 37 7 19 16
43 20 53 8 24 10 22 35 -41z"/>
<path d="M3401 2342 c-56 -28 -75 -63 -79 -145 -5 -89 13 -138 60 -167 40 -24
116 -27 158 -5 26 13 30 21 30 55 0 21 4 50 10 64 9 26 9 26 -35 26 -44 0 -44
0 -35 -26 16 -42 13 -104 -6 -104 -37 0 -84 33 -103 74 -28 57 -43 140 -31
171 13 35 76 35 118 0 l29 -24 22 22 c29 32 26 46 -14 63 -46 19 -83 18 -124
-4z"/>
<path d="M1171 2318 c5 -18 9 -80 9 -138 0 -58 -4 -120 -9 -138 l-10 -32 43 0
42 0 -4 65 -4 65 46 0 c58 0 81 12 101 50 25 48 19 97 -14 131 -28 28 -33 29
-120 29 l-90 0 10 -32z m149 -18 c43 -43 12 -130 -52 -144 l-28 -6 0 85 0 85
30 0 c17 0 39 -9 50 -20z"/>
<path d="M1441 2318 c5 -18 9 -80 9 -138 0 -58 -4 -120 -9 -138 l-10 -32 110
0 c112 0 119 3 99 41 -10 18 -13 18 -33 4 -12 -8 -38 -15 -59 -15 l-38 0 0 66
0 67 50 -6 c47 -6 50 -5 50 17 0 22 -3 23 -50 18 l-50 -5 0 62 0 61 41 0 c22
0 49 -5 61 -11 23 -12 23 -12 32 19 7 22 7 22 -103 22 l-110 0 10 -32z"/>
<path d="M2070 2318 c10 -18 37 -85 60 -148 46 -126 64 -160 84 -160 8 0 32
53 61 138 26 75 56 152 66 170 l18 32 -34 0 c-34 0 -35 -2 -35 -36 0 -36 -58
-214 -70 -214 -12 0 -81 216 -74 233 5 15 -1 17 -45 17 l-50 0 19 -32z"/>
<path d="M2520 2331 c13 -26 13 -276 0 -302 -10 -18 -6 -19 100 -19 60 0 110
2 110 4 0 3 -4 16 -10 31 -9 25 -11 25 -34 10 -15 -10 -40 -15 -63 -13 l-38 3
-3 124 c-1 69 2 137 7 153 10 28 10 28 -35 28 -41 0 -44 -2 -34 -19z"/>
<path d="M2760 2331 c5 -11 10 -79 10 -151 0 -72 -5 -140 -10 -151 -10 -18 -6
-19 100 -19 60 0 110 2 110 4 0 3 -4 16 -10 31 -9 25 -11 25 -34 10 -15 -10
-40 -15 -63 -13 l-38 3 -3 124 c-1 69 2 137 7 153 10 28 10 28 -35 28 -41 0
-44 -2 -34 -19z"/>
<path d="M3631 2318 c5 -18 9 -80 9 -138 0 -58 -4 -120 -9 -138 l-10 -32 110
0 c112 0 119 3 99 41 -10 18 -13 18 -33 4 -12 -8 -38 -15 -59 -15 l-38 0 0 66
0 67 50 -6 c47 -6 50 -5 50 17 0 22 -3 23 -50 18 l-50 -5 0 62 0 61 41 0 c22
0 49 -5 61 -11 23 -12 23 -12 32 19 7 22 7 22 -103 22 l-110 0 10 -32z"/>
</g>
</svg>
